PathFileType	4	(X/Y/Z)	/Users/itak/Documents/Research/Walk-IL/dataset/trc/00350_00011.trc
DataRate	CameraRate	NumFrames	NumMarkers	Units	OrigDataRate	OrigDataStartFrame	OrigNumFrames
100.000000	100.000000	4	53	mm	100.000000	273	730
Frame#	Time	RPSI			LPSI			STRN			T10			C7			CLAV			RBAK			LBAK			LSHO			LUPA			LAEL			LAOL			LWTS			LWPS			LFRA			LIFD			LHPS			LHTS			RSHO			RUPA			RAEL			RAOL			RWTS			RWPS			RFRA			RIFD			RHTS			RHPS			RBHD			LFHD			RFHD			LBHD			LHIP			RHIP			RASI			LASI			LKNE			LTHI			LANK			LTIP			LTOE			LMT1			LMT5			LHEE			RKNE			RANK			RTIP			RTOE			RMT1			RMT5			RHEE			L3			RTHI			
		X1	Y1	Z1	X2	Y2	Z2	X3	Y3	Z3	X4	Y4	Z4	X5	Y5	Z5	X6	Y6	Z6	X7	Y7	Z7	X8	Y8	Z8	X9	Y9	Z9	X10	Y10	Z10	X11	Y11	Z11	X12	Y12	Z12	X13	Y13	Z13	X14	Y14	Z14	X15	Y15	Z15	X16	Y16	Z16	X17	Y17	Z17	X18	Y18	Z18	X19	Y19	Z19	X20	Y20	Z20	X21	Y21	Z21	X22	Y22	Z22	X23	Y23	Z23	X24	Y24	Z24	X25	Y25	Z25	X26	Y26	Z26	X27	Y27	Z27	X28	Y28	Z28	X29	Y29	Z29	X30	Y30	Z30	X31	Y31	Z31	X32	Y32	Z32	X33	Y33	Z33	X34	Y34	Z34	X35	Y35	Z35	X36	Y36	Z36	X37	Y37	Z37	X38	Y38	Z38	X39	Y39	Z39	X40	Y40	Z40	X41	Y41	Z41	X42	Y42	Z42	X43	Y43	Z43	X44	Y44	Z44	X45	Y45	Z45	X46	Y46	Z46	X47	Y47	Z47	X48	Y48	Z48	X49	Y49	Z49	X50	Y50	Z50	X51	Y51	Z51	X52	Y52	Z52	X53	Y53	Z53	

274	2.73	-327.7095336914062	947.8359375	32.58781051635742	-444.7493896484375	958.9617919921875	-23.96986961364746	-272.0140686035156	1200.498779296875	-198.5392913818359	-386.1009521484375	1138.45947265625	12.77285671234131	-371.1505737304688	1386.519897460938	-30.25962257385254	-289.3522338867188	1327.342651367188	-162.42431640625	-341.2498474121094	1246.145263671875	48.19133758544922	-465.3408813476562	1354.6923828125	-69.23155975341797	-470.3198852539062	1370.050903320312	-171.2140045166016	-548.2342529296875	1259.085815429688	-183.6655578613281	-587.9442138671875	1061.140502929688	-200.0020294189453	-563.9854125976562	1044.35888671875	-118.9001312255859	-530.616455078125	817.2219848632812	-273.8619384765625	-600.1817626953125	812.9735717773438	-270.3851623535156	-603.0537109375	958.7713012695312	-219.6828308105469	-537.56005859375	657.3833618164062	-279.5631408691406	-603.2085571289062	741.6773681640625	-267.9591064453125	-544.4323120117188	740.52197265625	-295.2121887207031	-204.3814086914062	1369.298706054688	4.16130542755127	-159.1824340820312	1304.168823242188	49.89633178710938	-142.0069732666016	1038.023193359375	79.05647277832031	-233.9079895019531	1030.327880859375	58.30316925048828	-82.81185913085938	840.2032470703125	-62.77851486206055	-57.2478141784668	813.871826171875	4.452273368835449	-115.9606323242188	972.6333618164062	64.00835418701172	-57.5684700012207	673.1279296875	-99.23123168945312	-43.5689811706543	746.23583984375	-93.13172149658203	-40.68213653564453	734.2161254882812	-24.73141288757324	-269.6190185546875	1586.822509765625	-24.43914604187012	-250.7141876220703	1588.318237304688	-232.2707214355469	-180.1246185302734	1580.623779296875	-160.4095611572266	-387.5433349609375	1596.602172851562	-106.9418106079102	-504.7564392089844	915.9190063476562	-152.3460693359375	-200.3131256103516	884.5623168945312	2.742661714553833	-192.1391906738281	918.3389282226562	-107.7209167480469	-395.3994445800781	937.3638305664062	-231.9506988525391	-491.7664184570312	475.7892150878906	-307.5739135742188	-492.6744079589844	607.7616577148438	-280.2130126953125	-680.5984497070312	227.8680267333984	1.102007985115051	-594.9489135742188	334.9821166992188	-165.9690246582031	-576.8380737304688	52.13867950439453	-57.93619918823242	-558.22412109375	111.3446426391602	-3.47202205657959	-665.4957885742188	112.7432250976562	-48.98283767700195	-630.2181396484375	257.3808288574219	48.13508987426758	-262.3996276855469	432.0526428222656	-148.7622375488281	-402.9935607910156	49.18976974487305	-153.6107330322266	-291.51123046875	315.9459228515625	-179.4427032470703	-318.5290222167969	40.98124694824219	-334.7410888671875	-386.7518920898438	35.51117706298828	-319.4232177734375	-324.0408935546875	37.20230865478516	-218.9942016601562	-471.4659118652344	50.70315933227539	-147.7075347900391	-379.9279174804688	1019.748046875	6.679936408996582	-184.9872436523438	681.2123413085938	-99.40031433105469	
275	2.74	-326.5974731445312	948.7807006835938	26.5875415802002	-442.1286926269531	960.4638671875	-32.50355911254883	-266.4811096191406	1201.718383789062	-203.8864440917969	-383.5923767089844	1139.402221679688	6.138322830200195	-368.0051879882812	1387.393310546875	-36.95816421508789	-284.6788024902344	1328.50537109375	-167.9659576416016	-338.9569396972656	1247.170043945312	42.0296630859375	-461.7041931152344	1355.552612304688	-77.00531768798828	-465.5817260742188	1370.85986328125	-178.9548797607422	-543.1671142578125	1259.765869140625	-191.5352325439453	-582.0062255859375	1061.556030273438	-205.4430236816406	-558.5358276367188	1045.83837890625	-124.0447311401367	-525.9114990234375	815.2953491210938	-274.029541015625	-595.5819091796875	811.8504028320312	-270.6858825683594	-597.45751953125	958.6895141601562	-223.1894073486328	-534.6608276367188	655.4121704101562	-276.0431213378906	-599.4376220703125	740.6867065429688	-266.6725769042969	-540.4925537109375	738.2297973632812	-293.645263671875	-201.7703857421875	1370.510009765625	-0.3370958566665649	-156.8181304931641	1305.427001953125	45.72740173339844	-137.9836883544922	1039.2265625	74.18020629882812	-229.6924591064453	1030.957885742188	53.16068267822266	-75.23963165283203	846.832763671875	-72.44264984130859	-49.06363677978516	819.1119384765625	-6.072015762329102	-111.0210571289062	974.91552734375	58.02941131591797	-45.58559417724609	681.798828125	-114.0096969604492	-33.67689514160156	754.7554931640625	-105.4100570678711	-30.40058517456055	740.8982543945312	-37.58805847167969	-265.9949951171875	1588.197998046875	-30.64545822143555	-244.5247344970703	1588.298950195312	-238.2443237304688	-174.9003448486328	1580.766235351562	-165.4728393554688	-382.9134216308594	1597.912231445312	-114.7056579589844	-499.3771362304688	917.6316528320312	-162.53662109375	-198.7983093261719	884.9978637695312	-0.2733134627342224	-187.8808441162109	918.777587890625	-110.3553085327148	-388.0415344238281	938.8496704101562	-239.1212005615234	-478.8959045410156	479.0127258300781	-323.9408264160156	-482.0299682617188	610.677001953125	-294.5123901367188	-676.3489379882812	223.9166412353516	-26.07501411437988	-585.7407836914062	335.3514709472656	-188.3778839111328	-570.375732421875	51.727783203125	-91.07167053222656	-552.9015502929688	108.0972442626953	-32.96474838256836	-659.2222900390625	111.5072784423828	-81.14556884765625	-626.9283447265625	251.30810546875	23.41097450256348	-260.8817749023438	431.8575134277344	-149.7232666015625	-402.8246154785156	49.19597625732422	-153.4940338134766	-290.6063537597656	315.8822326660156	-180.2093200683594	-318.4940490722656	40.91940689086914	-334.6999206542969	-386.7299499511719	35.57713317871094	-319.3637390136719	-323.9013671875	37.08078002929688	-218.8838500976562	-471.3613586425781	50.88617324829102	-147.6225738525391	-378.1645202636719	1021.085021972656	-0.3634836375713348	-183.0099487304688	681.1351318359375	-101.6268997192383	
276	2.75	-325.5499267578125	949.6029663085938	20.59204483032227	-439.5551452636719	961.8550415039062	-41.13240814208984	-260.8353881835938	1202.858154296875	-209.1067047119141	-381.0829467773438	1140.30615234375	-0.4255467355251312	-364.8175354003906	1388.21435546875	-43.63499450683594	-279.9556579589844	1329.577270507812	-173.3918914794922	-336.6684875488281	1248.154541015625	35.91435623168945	-458.0016784667969	1356.363525390625	-84.81185913085938	-460.7034912109375	1371.622314453125	-186.7141876220703	-538.00146484375	1260.464477539062	-199.3975677490234	-576.2009887695312	1062.0166015625	-210.775146484375	-553.1087646484375	1047.393188476562	-129.1234588623047	-521.2371215820312	813.646728515625	-274.3163757324219	-591.0205688476562	810.9542846679688	-271.0502014160156	-591.9434204101562	958.7363891601562	-226.6591949462891	-531.7298583984375	653.8176879882812	-272.7518310546875	-595.640380859375	739.9528198242188	-265.4991455078125	-536.5814208984375	736.2611083984375	-292.2327575683594	-199.1782073974609	1371.679931640625	-4.720452308654785	-154.5047454833984	1306.650024414062	41.70201110839844	-134.0804901123047	1040.415893554688	69.55348205566406	-225.5623168945312	1031.590698242188	48.18201446533203	-67.76716613769531	853.627685546875	-81.59856414794922	-41.10160446166992	824.5038452148438	-16.0798168182373	-106.2491073608398	977.2505493164062	52.38746643066406	-33.87892913818359	690.8832397460938	-128.2459564208984	-23.91100311279297	763.5977783203125	-117.1240005493164	-20.43049049377441	747.8214111328125	-49.88871383666992	-262.3736877441406	1589.50439453125	-36.72729873657227	-238.2914428710938	1588.27783203125	-244.0554351806641	-169.6432037353516	1580.9306640625	-170.3720703125	-378.2447204589844	1599.1171875	-122.3759613037109	-493.8272705078125	919.2792358398438	-172.6476287841797	-197.3921051025391	885.3087158203125	-3.194574117660522	-183.7816009521484	919.0360107421875	-112.7845458984375	-380.6082153320312	940.2469482421875	-246.1733245849609	-465.7679748535156	482.2640075683594	-339.3545837402344	-471.1697998046875	613.5922241210938	-308.1594543457031	-671.2335815429688	219.0757141113281	-53.49758148193359	-575.9835205078125	335.40576171875	-210.3390502929688	-562.8098754882812	51.11530685424805	-125.2888031005859	-546.5697631835938	104.1705856323242	-63.49591827392578	-651.843994140625	110.0009155273438	-113.9772109985352	-622.738037109375	243.9404602050781	-1.554346919059753	-259.4736022949219	431.6795349121094	-150.6192169189453	-402.68017578125	49.2115592956543	-153.4016418457031	-289.7474060058594	315.8087463378906	-180.9123077392578	-318.465576171875	40.85459136962891	-334.6670227050781	-386.7098083496094	35.63135528564453	-319.3153076171875	-323.7994384765625	36.97002029418945	-218.7920074462891	-471.2409362792969	51.07693862915039	-147.5464935302734	-376.4861145019531	1022.527282714844	-7.341042518615723	-181.1516876220703	680.9815673828125	-103.7494277954102	
277	2.76	-324.55712890625	950.2969360351562	14.59659385681152	-437.0403747558594	963.0678100585938	-49.82409286499023	-255.0895538330078	1203.86962890625	-214.20068359375	-378.5590209960938	1141.164306640625	-6.938857078552246	-361.5728759765625	1388.978271484375	-50.30323791503906	-275.1631774902344	1330.521118164062	-178.7152099609375	-334.3812561035156	1249.09130859375	29.8377571105957	-454.2180480957031	1357.1142578125	-92.66130828857422	-455.6660766601562	1372.314331054688	-194.5055236816406	-532.7197875976562	1261.156860351562	-207.2496795654297	-570.5081787109375	1062.491821289062	-216.038818359375	-547.7041015625	1049.002319335938	-134.1467895507812	-516.58251953125	812.2493896484375	-274.7533874511719	-586.486328125	810.2413940429688	-271.5074768066406	-586.513427734375	958.8812866210938	-230.1331939697266	-528.7100219726562	652.5584106445312	-269.7313537597656	-591.7817993164062	739.4249267578125	-264.4656372070312	-532.6563720703125	734.584228515625	-291.0076904296875	-196.5907897949219	1372.78857421875	-9.012073516845703	-152.2357635498047	1307.826782226562	37.81036376953125	-130.2627563476562	1041.571899414062	65.14848327636719	-221.5039520263672	1032.19873046875	43.37764358520508	-60.40910720825195	860.524169921875	-90.24636840820312	-33.3611946105957	829.984375	-25.56826019287109	-101.6149215698242	979.5987548828125	47.06346130371094	-22.50625228881836	700.284423828125	-141.8820037841797	-14.31143760681152	772.667236328125	-128.2673187255859	-10.80072975158691	754.8998413085938	-61.6143684387207	-258.7535400390625	1590.723388671875	-42.68112564086914	-232.0151824951172	1588.258911132812	-249.7029113769531	-164.3517303466797	1581.120239257812	-175.1066284179688	-373.528076171875	1600.196166992188	-129.9501342773438	-488.1407775878906	920.8175659179688	-182.6495971679688	-196.0945281982422	885.4822998046875	-6.041861057281494	-179.8658599853516	919.0778198242188	-115.0223999023438	-373.124267578125	941.5396118164062	-253.1148681640625	-452.4678344726562	485.4737548828125	-353.816162109375	-460.1394348144531	616.4542846679688	-321.1494445800781	-665.1219482421875	213.3468780517578	-81.14157104492188	-565.7002563476562	335.1101379394531	-231.8240203857422	-553.9254760742188	50.44354248046875	-160.3282470703125	-539.13720703125	99.66132354736328	-94.95677947998047	-643.20361328125	108.2935638427734	-147.3286437988281	-617.6096801757812	235.3454437255859	-26.78641319274902	-258.1842956542969	431.5064392089844	-151.4631042480469	-402.5611877441406	49.23865127563477	-153.3385314941406	-288.9448852539062	315.6962280273438	-181.5516510009766	-318.4407653808594	40.78697967529297	-334.6415100097656	-386.6862182617188	35.6772575378418	-319.2783508300781	-323.7291259765625	36.87530899047852	-218.7184906005859	-471.1131286621094	51.27236557006836	-147.4828033447266	-374.8851623535156	1024.0224609375	-14.19352245330811	-179.4291229248047	680.7229614257812	-105.7354354858398	
